<svg id="Layer_1" data-name="Layer 1" xmlns="http://www.w3.org/2000/svg" viewBox="0 0 595.28 595.28"><defs><style>.cls-1{fill:#637181;}.cls-2{fill:#fff;}</style></defs><rect class="cls-1" x="7.65" y="7.64" width="579.99" height="579.99" rx="14.01"/><path class="cls-2" d="M120.08,505.2a22.13,22.13,0,0,1,4.9-5.6,23.48,23.48,0,0,1,6-3.67,14.58,14.58,0,0,1,5.35-1.23l-2.12,12.35a11.28,11.28,0,0,0-1.5-.08,12.34,12.34,0,0,0-6.76,1.94,15.9,15.9,0,0,0-4.94,5,14.77,14.77,0,0,0-2.25,6.22l-1.85,15.1H104.64l4.67-38.58h11.12Z"/><path class="cls-2" d="M171.46,523.65l4.33,9.53a30.67,30.67,0,0,1-6.18,2.21,26.22,26.22,0,0,1-6.18.8q-9.81,0-15.45-5t-5.65-14.91a22.25,22.25,0,0,1,2.43-9.89,20.39,20.39,0,0,1,7.54-8.21c3.42-2.17,7.71-3.27,12.89-3.27a21,21,0,0,1,13.42,4.33q5.47,4.32,6.89,15.62L156.63,522a7.91,7.91,0,0,0,3.58,2.92,11.81,11.81,0,0,0,4.54.88A14.91,14.91,0,0,0,171.46,523.65ZM157.21,507.5a11,11,0,0,0-2.52,7.32v.27l17.56-4.59a7.87,7.87,0,0,0-2.73-4.42,7.53,7.53,0,0,0-4.77-1.58C161.4,504.5,158.88,505.5,157.21,507.5Z"/><path class="cls-2" d="M232.41,498a10,10,0,0,1,2.78,8.34l-3.53,28.87H219.3l3-24.28a5.86,5.86,0,0,0-1-4.19,4.94,4.94,0,0,0-4-1.46q-4.23,0-7.28,4a20.21,20.21,0,0,0-3.75,10.24l-2,15.72H191.94l4.68-38.58h11.21l.18,5.74a17.82,17.82,0,0,1,6.61-5.56,20.12,20.12,0,0,1,9.1-2A11.75,11.75,0,0,1,232.41,498Z"/><path class="cls-2" d="M292.7,503.39a22,22,0,0,1-8.79,8.26l12.18,23.57H281.18L270,514.56h-8.48l-2.55,20.66H246.13l8-65h19.68q11.13,0,17,5T296.71,489c0,.59-.06,1.65-.17,3.18A28.27,28.27,0,0,1,292.7,503.39ZM263,502.2h9.1q5.21,0,7.94-3a12.07,12.07,0,0,0,3.18-6.58,10,10,0,0,0,.09-1.68,9.49,9.49,0,0,0-1.86-5.78c-1.23-1.67-3.53-2.51-6.88-2.51h-9.18Z"/><path class="cls-2" d="M340.41,522.5H318.87L312,535.22H299.36L337,467.69h.71l21,67.53H343.85Zm-2.91-10.76-4.33-15.81-8.56,15.81Z"/><path class="cls-2" d="M385.51,496.64l2.3-2.47,24.1-23.92H428.5l-30.36,29.13,22.51,35.84H404.4L387.72,507.5l-3.53,3.18-3,24.54h-13l8-65h13l-2.82,23.13Z"/><path class="cls-2" d="M446.16,512.53a10.36,10.36,0,0,0,1.49,5.34,11.63,11.63,0,0,0,10.07,5.61,13.84,13.84,0,0,0,6.75-1.77,17.11,17.11,0,0,0,5.39-4.59,11.81,11.81,0,0,0,2.51-5.92l5-40.95h13.24l-5,41.22a26.12,26.12,0,0,1-5.08,12.58,28.76,28.76,0,0,1-10.63,8.74,30.86,30.86,0,0,1-13.68,3.13,26.43,26.43,0,0,1-12.05-2.69,20.3,20.3,0,0,1-8.34-7.59,20.71,20.71,0,0,1-3-11.08c0-.65.06-1.68.17-3.09l5-41.22h13.23l-5,40.95A7.47,7.47,0,0,0,446.16,512.53Z"/><path class="cls-2" d="M248.47,108.67a103,103,0,0,0-19.65-21.45,108.21,108.21,0,0,0-27.75-16.94q-14.07-5.7-24.68-5.71l9.79,57.13a45.08,45.08,0,0,1,6.94-.41,56.91,56.91,0,0,1,31.21,9,72.57,72.57,0,0,1,22.85,23,79.1,79.1,0,0,1,5,9.62C250.81,144.88,249.4,126.82,248.47,108.67Z"/><path class="cls-2" d="M246.46,108.67a103,103,0,0,1,19.65-21.45,108.21,108.21,0,0,1,27.75-16.94q14.07-5.7,24.68-5.71l-9.79,57.13a45.08,45.08,0,0,0-6.94-.41,56.91,56.91,0,0,0-31.21,9,72.57,72.57,0,0,0-22.85,23,79.1,79.1,0,0,0-5,9.62C244.12,144.88,245.53,126.82,246.46,108.67Z"/><path class="cls-2" d="M399.38,294.89q-14.49,24.28-40.6,38.16L415.09,442h-69l-51.82-95.48H255.13L243.3,442H184.14l36.72-300.32h91q51.4,0,78.75,23.06T418,228.17q0,4.1-.82,14.69A130.25,130.25,0,0,1,399.38,294.89Zm-137.31-5.5h42q24.07,0,36.73-14.08t14.69-30.41a49,49,0,0,0,.4-7.75,43.87,43.87,0,0,0-8.56-26.72q-8.58-11.64-31.84-11.63H273.09Z"/><path class="cls-2" d="M178.68,132.71c9-8.74,43.39,2.17,43.39,2.17-7.1-10.67-41-9-41-9L173.6,84l-2.94,2Z"/><path class="cls-2" d="M314.69,132.71c-9-8.74-43.39,2.17-43.39,2.17,7.1-10.67,41-9,41-9L319.77,84l2.94,2Z"/></svg>